<?xml version="1.0" encoding="UTF-8" standalone="no"?>
<!-- Created with Inkscape (http://www.inkscape.org/) -->

<svg
   width="51.164555mm"
   height="78.268402mm"
   viewBox="0 0 51.164555 78.268402"
   version="1.1"
   id="svg1"
   xml:space="preserve"
   xmlns="http://www.w3.org/2000/svg"
   xmlns:svg="http://www.w3.org/2000/svg"><defs
     id="defs1" /><g
     id="layer1"
     transform="translate(-15.848265,-212.07577)"><path
       style="fill:#f0ffff;fill-opacity:1;stroke-width:0.264583"
       d="m 15.848266,240.49951 6.17793,-19.30604 c 3.676857,-4.07699 7.23638,-7.30606 13.196031,-8.59297 4.761463,-1.07014 8.99093,-0.27829 13.256807,0.38612 7.191477,0.62567 11.637133,4.20112 12.70205,8.91116 4.348841,4.05068 4.818294,8.02541 5.473619,11.58362 l 0.358119,8.97909 -2.518132,8.2444 0.0048,7.81358 c 0.247369,2.7357 -0.663144,4.31351 -1.673188,5.7918 l -2.932255,2.31195 -1.701192,14.03383 c -3.109113,4.20353 -7.072728,7.23212 -12.227152,8.62335 -3.131868,0.82838 -6.263735,1.45879 -9.395603,0.77224 -4.489402,-2.08759 -9.074357,-4.05839 -11.326204,-8.88077 l -0.772239,-17.76156 -3.088965,-0.3861 c -2.468939,-1.08087 -3.133831,-2.9349 -3.861206,-4.76216 0.523866,-2.70059 1.051153,-5.40031 2.574137,-7.85112 -2.91974,-2.8933 -4.138771,-6.25043 -4.247326,-9.91042 z"
       id="path75" /></g></svg>
