<?xml version="1.0" encoding="UTF-8" standalone="no"?>
<!-- Created with Inkscape (http://www.inkscape.org/) -->

<svg
   width="34.641052mm"
   height="33.783985mm"
   viewBox="0 0 34.641052 33.783985"
   version="1.1"
   id="svg1"
   xml:space="preserve"
   xmlns="http://www.w3.org/2000/svg"
   xmlns:svg="http://www.w3.org/2000/svg"><defs
     id="defs1" /><g
     id="layer1"
     transform="translate(-96.10628,-49.364428)"><path
       d="m 106.36508,49.364429 -2.31407,8.793261 -7.944732,0.694015 c 0,0 0.308852,5.630661 3.0856,7.713224 2.776752,2.08256 5.707662,3.316594 5.707662,3.316594 l 2.39107,-8.175729 6.55619,7.63571 c 0,0 -5.3393,5.975007 -5.87923,5.280815 -0.31531,-0.4054 -1.4514,-1.191982 -2.24948,-1.899109 -0.56847,-0.503724 -0.45342,-1.674226 -0.64595,-1.738396 -0.46279,-0.154259 -1.48363,1.596285 -1.48363,1.596285 l 3.31659,3.239596 -6.09368,6.093685 2.23707,1.234033 5.58571,-6.005835 3.12539,3.301607 1.6154,-1.408699 c 0,0 0.15543,-0.400726 -1.22525,-0.66921 -1.30702,-0.254161 -2.42465,-2.041219 -2.42465,-2.041219 l 6.58977,-4.823478 10.25881,10.258288 c 0,0 2.23685,2.391166 3.5481,0.848527 1.31124,-1.542638 0.154,-2.931087 0.154,-2.931087 L 118.70593,68.801485 c 0,0 9.56459,-9.564119 10.87582,-12.03234 1.31124,-2.468222 1.00253,-5.78466 1.00253,-5.78466 l -5.01365,6.170166 -9.40976,9.178768 -7.40472,-5.553666 7.55871,-2.159559 c 0,0 -0.46254,-4.165235 -4.0106,-6.479191 -3.54807,-2.313958 -5.93918,-2.776574 -5.93918,-2.776574 z"
       style="fill:#f0ffff;stroke-width:0.264583"
       id="path23" /></g></svg>
