<?xml version="1.0" encoding="UTF-8" standalone="no"?>
<!-- Created with Inkscape (http://www.inkscape.org/) -->

<svg
   width="30.534529mm"
   height="31.821831mm"
   viewBox="0 0 30.534529 31.821831"
   version="1.1"
   id="svg1"
   xml:space="preserve"
   xmlns="http://www.w3.org/2000/svg"
   xmlns:svg="http://www.w3.org/2000/svg"><defs
     id="defs1" /><g
     id="layer1"
     transform="translate(-100.52465,-181.27575)"><path
       d="m 105.78269,203.11783 -0.38344,0.13901 -0.5519,-3.58686 0.44855,-0.0181 -0.5054,-3.5941 -1.04696,0.20929 -0.36794,-1.93167 1.13017,-0.30592 -0.69609,-4.95422 -0.89348,0.0181 -0.64389,-3.9548 1.00046,0.11782 -0.0811,-0.57774 -2.66702,0.18397 3.86282,28.23497 2.759,-0.27596 z"
       style="fill:#f0ffff;stroke-width:0.264583"
       id="path15" /><path
       d="m 105.78269,203.11783 -0.48679,-3.46593 -0.44855,0.0181 0.5519,3.58686 z"
       style="fill:#f0ffff;stroke-width:0.264583"
       id="path19" /><path
       d="m 104.7905,196.0578 -0.28473,-2.0283 -1.13017,0.30592 0.36794,1.93167 z"
       style="fill:#f0ffff;stroke-width:0.264583"
       id="path18" /><path
       d="m 103.80968,189.07528 -0.53691,-3.81889 -1.00046,-0.11782 0.64389,3.9548 z"
       style="fill:#f0ffff;stroke-width:0.264583"
       id="path17" /><path
       d="m 127.28835,181.27576 -8.00157,2.11511 -4.59869,-0.45992 -3.21892,2.11564 -7.63365,0.27595 -0.56275,-0.0661 0.53691,3.81889 3.6127,-0.0739 0.36794,4.13825 -3.28455,0.88987 0.28473,2.0283 3.55172,-0.71055 1.10381,4.13876 -4.15013,0.16589 0.48679,3.46593 3.93929,-1.42471 2.48306,1.56372 8.36951,-4.04678 2.29909,1.93115 8.18554,-3.9548 -5.60999,-6.89777 z"
       style="fill:#f0ffff;stroke-width:0.264583"
       id="path16" /></g></svg>
