<?xml version="1.0" encoding="UTF-8" standalone="no"?>
<!-- Created with Inkscape (http://www.inkscape.org/) -->

<svg
   width="32.097855mm"
   height="30.166651mm"
   viewBox="0 0 32.097855 30.166651"
   version="1.1"
   id="svg1"
   xml:space="preserve"
   xmlns="http://www.w3.org/2000/svg"
   xmlns:svg="http://www.w3.org/2000/svg"><defs
     id="defs1" /><g
     id="layer1"
     transform="translate(-98.225527,-138.50886)"><path
       d="m 106.2731,140.15269 c -4.59856,-0.0115 -8.047571,0.9312 -8.047571,0.9312 0,0 11.404271,-1.19528 21.153231,6.2544 0.35935,0.2746 0.70377,0.55275 1.04025,0.83251 l 0.24753,0.1788 -0.0165,0.0176 c 8.57816,7.27159 9.67331,15.98559 9.67331,15.98559 0,0 0.0923,-11.77244 -9.10487,-19.40605 -4.59856,-3.81681 -10.34678,-4.78253 -14.94534,-4.79402 z"
       style="fill:#f0ffff;stroke-width:0.264583"
       id="path20" /><path
       d="m 120.65,148.36717 c -0.0772,-0.0654 -0.15257,-0.13116 -0.23099,-0.19637 l -1.40819,-1.01647 -11.31248,13.05966 h -2.66702 l -4.59869,4.78266 3.9548,0.092 0.27595,3.58686 4.87464,-4.41472 -0.55191,-3.40289 z"
       style="fill:#f0ffff;stroke-width:0.264583"
       id="path22" /><path
       d="m 128.02423,138.50886 -4.5067,1.7477 -0.45993,2.29908 -1.83916,2.29908 1.19528,0.91984 2.2996,-2.29908 2.02313,-1.28778 z"
       style="fill:#f0ffff;stroke-width:0.264583"
       id="path21" /></g></svg>
