<?xml version="1.0" encoding="UTF-8" standalone="no"?>
<!-- Created with Inkscape (http://www.inkscape.org/) -->

<svg
   width="33.281666mm"
   height="32.527184mm"
   viewBox="0 0 33.281666 32.527184"
   version="1.1"
   id="svg1"
   xml:space="preserve"
   xmlns="http://www.w3.org/2000/svg"
   xmlns:svg="http://www.w3.org/2000/svg"><defs
     id="defs1" /><g
     id="layer1"
     transform="translate(-97.67573,-223.07011)"><path
       d="m 115.84254,230.04952 a 9.70298,9.70298 0 0 0 -1.38441,-0.12092 9.70298,9.70298 0 0 0 -0.84181,0.0734 v 0 a 9.70298,9.70298 0 0 0 -2.7373,0.63304 v 0 a 9.70298,9.70298 0 0 0 -3.80235,2.70836 v 0 a 9.70298,9.70298 0 0 0 -1.31258,2.06137 v 0 a 9.70298,9.70298 0 0 0 -0.86558,2.59209 v 0 a 9.70298,9.70298 0 0 0 -0.14315,1.63453 9.70298,9.70298 0 0 0 0.0873,0.99942 v 0 a 9.70298,9.70298 0 0 0 0.62942,2.60139 v 0 a 9.70298,9.70298 0 0 0 1.19269,2.1208 v 0 a 9.70298,9.70298 0 0 0 2.5802,2.42776 v 0 a 9.70298,9.70298 0 0 0 1.62316,0.84181 v 0 a 9.70298,9.70298 0 0 0 2.54248,0.62012 v 0 a 9.70298,9.70298 0 0 0 1.04748,0.0915 9.70298,9.70298 0 0 0 1.19424,-0.10438 v 0 a 9.70298,9.70298 0 0 0 3.20808,-0.98599 v 0 a 9.70298,9.70298 0 0 0 1.58905,-1.00769 v 0 a 9.70298,9.70298 0 0 0 2.45566,-2.84789 v 0 a 9.70298,9.70298 0 0 0 0.58188,-1.24747 v 0 a 9.70298,9.70298 0 0 0 0.62115,-2.90318 v 0 a 9.70298,9.70298 0 0 0 0.0532,-0.60616 9.70298,9.70298 0 0 0 -0.1235,-1.4118 v 0 a 9.70298,9.70298 0 0 0 -0.68678,-2.389 v 0 a 9.70298,9.70298 0 0 0 -1.2113,-2.08101 v 0 a 9.70298,9.70298 0 0 0 -1.80402,-1.80248 v 0 a 9.70298,9.70298 0 0 0 -2.01745,-1.1808 v 0 a 9.70298,9.70298 0 0 0 -2.47582,-0.71676 z m -1.4304,2.63809 a 6.8978529,6.8978529 0 0 1 6.89828,6.89777 6.8978529,6.8978529 0 0 1 -6.89828,6.89777 6.8978529,6.8978529 0 0 1 -6.89777,-6.89777 6.8978529,6.8978529 0 0 1 6.89777,-6.89777 z"
       style="fill:#f0ffff;stroke-width:0.264583"
       id="path62" /><path
       d="m 114.7408,223.0701 -1.12448,6.93188 a 9.70298,9.70298 0 0 1 0.84181,-0.0734 9.70298,9.70298 0 0 1 1.38441,0.12092 z"
       style="fill:#f0ffff;stroke-width:0.264583"
       id="path73" /><path
       d="m 115.65237,249.22975 a 9.70298,9.70298 0 0 1 -1.19424,0.10438 9.70298,9.70298 0 0 1 -1.04748,-0.0915 l 0.95291,6.35465 z"
       style="fill:#f0ffff;stroke-width:0.264583"
       id="path67" /><path
       d="m 104.8427,240.63079 a 9.70298,9.70298 0 0 1 -0.0873,-0.99942 9.70298,9.70298 0 0 1 0.14315,-1.63453 l -7.222818,1.28985 z"
       style="fill:#f0ffff;stroke-width:0.264583"
       id="path64" /><path
       d="m 124.03791,238.21957 a 9.70298,9.70298 0 0 1 0.1235,1.4118 9.70298,9.70298 0 0 1 -0.0532,0.60616 l 6.84919,-0.66817 z"
       style="fill:#f0ffff;stroke-width:0.264583"
       id="path70" /><path
       d="m 122.13983,233.74956 a 9.70298,9.70298 0 0 1 1.2113,2.08101 l 2.98638,-3.61477 z"
       style="fill:#f0ffff;stroke-width:0.264583"
       id="path71" /><path
       d="m 118.31836,230.76628 a 9.70298,9.70298 0 0 1 2.01745,1.1808 l 0.91054,-4.63434 z"
       style="fill:#f0ffff;stroke-width:0.264583"
       id="path72" /><path
       d="m 123.48704,243.14071 a 9.70298,9.70298 0 0 1 -0.58188,1.24747 l 3.14916,1.02681 z"
       style="fill:#f0ffff;stroke-width:0.264583"
       id="path69" /><path
       d="m 120.4495,247.23607 a 9.70298,9.70298 0 0 1 -1.58905,1.00769 l 3.13986,2.16835 z"
       style="fill:#f0ffff;stroke-width:0.264583"
       id="path68" /><path
       d="m 110.86817,248.62255 a 9.70298,9.70298 0 0 1 -1.62316,-0.84181 l -0.34985,3.29127 z"
       style="fill:#f0ffff;stroke-width:0.264583"
       id="path66" /><path
       d="m 106.66481,245.35298 a 9.70298,9.70298 0 0 1 -1.19269,-2.1208 l -2.6107,3.21996 z"
       style="fill:#f0ffff;stroke-width:0.264583"
       id="path65" /><path
       d="m 105.76409,235.40475 a 9.70298,9.70298 0 0 1 1.31258,-2.06137 l -4.40387,-0.56224 z"
       style="fill:#f0ffff;stroke-width:0.264583"
       id="path63" /></g></svg>
